# xmcd
# 
# Track frame offsets:
#     150
#     18433
#     35064
#     54611
#     69402
#     91693
#     108042
#     124241
#     141191
#     160376
#     180753
#     201473
#     223789
#     244627
#     260407
#     273615
#     285480
#     303720
#     321498
#     340228
# 
# Disc length: 4713
# 
# Revision: 1
# Processed by: cddbd v1.5.2PL0 Copyright (c) Steve Scherf et al.
# Submitted via: fre:ac v1.0.17
# 
DISCID=2f126714
DTITLE=Various Artist - 100% Merengue Bachata CD 1
DYEAR=2009
DGENRE=Merengue
TTITLE0=Aventura - Obsesion
TTITLE1=Opalo - Amor Sincero
TTITLE2=La Makina - Yo No Me Muero Por Nadie
TTITLE3=Fulanito - Guallando
TTITLE4=Kinito Mendez - El Tamarindo
TTITLE5=Yiye Con Mucho Swing - How Deep Is Your Love
TTITLE6=Pablo Bachata feat M Sosa - I Wanna Love You
TTITLE7=Prophex - Ladrona De Mi Corazon
TTITLE8=Kiko Rodriguez - El Mambo Es Mio
TTITLE9=Frenesi De Merengue - La Noche
TTITLE10=Rikarena - El Ki Ki Ki
TTITLE11=Proyecto Uno - El Tiburon
TTITLE12=Kinito Mendez - Cachamba
TTITLE13=Vakero - Esta Noche
TTITLE14=Willi Willie - Kulikitata
TTITLE15=Amarfis Y La Banda De Atakke - Ta'Te Mansa
TTITLE16=Elvis Martinez - La Vida Es Un Carnaval
TTITLE17=Wellington - Vete Ya
TTITLE18=Yoskar Sarante - Ay Amor
TTITLE19=Nelson Herrera - Nos Amamos
EXTD=YEAR: 2009
EXTT0=
EXTT1=
EXTT2=
EXTT3=
EXTT4=
EXTT5=
EXTT6=
EXTT7=
EXTT8=
EXTT9=
EXTT10=
EXTT11=
EXTT12=
EXTT13=
EXTT14=
EXTT15=
EXTT16=
EXTT17=
EXTT18=
EXTT19=
PLAYORDER=
